<svg width="126" height="124" viewBox="0 0 126 124" fill="none" xmlns="http://www.w3.org/2000/svg">
<path d="M97.8103 40.4742C99.397 40.4742 100.677 41.6277 100.677 43.057V88.562C100.677 91.7113 99.0313 94.6315 96.3369 96.2619L64.1276 115.752C63.6544 116.053 63.0976 116.204 62.5409 116.204C61.9841 116.204 61.4274 116.053 60.9263 115.752L28.717 96.2619C26.0226 94.6315 24.3765 91.7113 24.3765 88.562V43.057C24.3765 41.6277 25.657 40.4742 27.2437 40.4742H97.8103ZM97.8103 32.9513H27.2437C21.0639 32.9513 16.0254 37.4901 16.0254 43.057V93.3246C16.0254 96.0074 17.4301 98.4943 19.7277 99.8793L56.2776 121.996C58.1427 123.125 60.2861 123.702 62.5409 123.702C64.7957 123.702 66.9391 123.1 68.8042 121.971L105.354 99.8542C107.652 98.4692 109.056 95.9823 109.056 93.2995V43.0319C109.056 37.465 104.018 32.9263 97.8381 32.9263L97.8103 32.9513Z" fill="#6048EB"/>
<path d="M62.8758 89.6577C61.4839 89.6577 60.1199 89.2401 58.9508 88.4607L3.33258 51.1036C1.38399 49.7952 0.214844 47.5961 0.214844 45.2578C0.214844 42.9195 1.38399 40.7204 3.33258 39.4121L58.9508 2.0549C60.1199 1.27546 61.4839 0.85791 62.8758 0.85791C64.2676 0.85791 65.6316 1.27546 66.8008 2.0549L122.419 39.4121C124.368 40.7204 125.537 42.9195 125.537 45.2578C125.537 47.5961 124.368 49.7952 122.419 51.1036L66.8008 88.4607C65.6316 89.2401 64.2676 89.6577 62.8758 89.6577Z" fill="#6048EB"/>
</svg>
