<svg width="133" height="120" viewBox="0 0 133 120" fill="none" xmlns="http://www.w3.org/2000/svg">
<path fill-rule="evenodd" clip-rule="evenodd" d="M72.9463 6.10352e-05C106.076 0.000451618 132.936 26.8604 132.916 60.011C132.915 93.1409 106.056 120 72.9264 120H7.39925C1.51437 120 -1.58072 113.015 2.39005 108.657L6.46263 104.177C12.5912 97.4371 14.8511 87.8873 11.9193 79.2742C9.8626 73.2061 8.74352 66.7292 8.74352 59.9891C8.74397 26.859 35.6024 6.10352e-05 68.7326 6.10352e-05H72.9463ZM28.2314 65.0202C24.6155 65.0202 21.76 68.1609 22.6089 71.6757C27.8633 93.432 47.4604 109.594 70.8305 109.594C71.2743 109.594 71.7168 109.588 72.1578 109.576C76.1393 109.47 79.0234 105.996 79.0234 102.013V88.9466C79.0234 75.7313 68.3122 65.0206 55.097 65.0202H28.2314ZM112.988 65.0202C99.7726 65.0202 89.0617 75.7311 89.0617 88.9466V100.146C89.0617 103.02 91.9599 104.973 94.4853 103.6C107.278 96.6458 116.67 84.2262 119.527 69.4757C119.985 67.109 118.088 65.0202 115.677 65.0202H112.988ZM89.0418 31.0535C89.0418 44.269 99.7527 54.9799 112.968 54.9799H115.681C118.091 54.9799 119.988 52.8922 119.531 50.5261C116.678 35.7571 107.275 23.3218 94.4639 16.3661C91.9386 14.9949 89.0418 16.9479 89.0418 19.8215V31.0535ZM70.8305 10.3863C47.4521 10.3863 27.8495 26.5589 22.6034 48.3267C21.7565 51.841 24.6117 54.9799 28.2266 54.9799H55.0751C68.2906 54.9799 79.0015 44.269 79.0015 31.0535V17.9645C79.0015 13.9802 76.1151 10.5068 72.1322 10.4033C71.6996 10.392 71.2657 10.3864 70.8305 10.3863Z" fill="#497AFF"/>
</svg>
